<svg width="200" height="80" viewBox="0 0 200 80" fill="none" xmlns="http://www.w3.org/2000/svg">
  <!-- Background for visibility -->
  <rect width="200" height="80" fill="#1a1d26"/>

  <!-- Heart Icon -->
  <g transform="translate(30, 24)">
    <path d="M16 28.5C16 28.5 4.5 21 4.5 12.5C4.5 9.5 6 6.5 9.5 6C12 5.7 14 7 16 9.5C18 7 20 5.7 22.5 6C26 6.5 27.5 9.5 27.5 12.5C27.5 21 16 28.5 16 28.5Z"
          stroke="#D4A24F"
          stroke-width="1.2"
          stroke-linecap="round"
          stroke-linejoin="round"
          fill="none"/>

    <!-- Inner star -->
    <path d="M16 12L16.5 13.5L18 14L16.5 14.5L16 16L15.5 14.5L14 14L15.5 13.5L16 12Z"
          fill="#D4A24F"/>

    <!-- Decorative dots -->
    <circle cx="12" cy="13" r="0.8" fill="#D4A24F" opacity="0.6"/>
    <circle cx="20" cy="13" r="0.8" fill="#D4A24F" opacity="0.6"/>
    <circle cx="16" cy="18.5" r="0.8" fill="#D4A24F" opacity="0.6"/>
  </g>

  <!-- Text: "Sirius" -->
  <text x="72" y="48"
        font-family="'Georgia', 'Cormorant Garamond', serif"
        font-size="24"
        font-weight="500"
        letter-spacing="2.4"
        fill="#F5F1E8">Sirius</text>
</svg>
