<svg width="180" height="180" viewBox="0 0 180 180" fill="none" xmlns="http://www.w3.org/2000/svg">
  <rect width="180" height="180" fill="#1a1d26" rx="40"/>
  <g transform="translate(90, 90) scale(2.5)">
    <path d="M0 14.5C0 14.5 -11.5 7 -11.5 -1.5C-11.5 -4.5 -10 -7.5 -6.5 -8C-4 -8.3 -2 -7 0 -4.5C2 -7 4 -8.3 6.5 -8C10 -7.5 11.5 -4.5 11.5 -1.5C11.5 7 0 14.5 0 14.5Z" stroke="#D4A24F" stroke-width="2" stroke-linecap="round" stroke-linejoin="round" fill="none"/>
    <path d="M0 -2L0.5 -0.5L2 0L0.5 0.5L0 2L-0.5 0.5L-2 0L-0.5 -0.5L0 -2Z" fill="#D4A24F"/>
    <circle cx="-4" cy="-1" r="1.2" fill="#D4A24F" opacity="0.6"/>
    <circle cx="4" cy="-1" r="1.2" fill="#D4A24F" opacity="0.6"/>
    <circle cx="0" cy="4.5" r="1.2" fill="#D4A24F" opacity="0.6"/>
  </g>
</svg>
